<?xml version="1.0" standalone="no"?>
<!DOCTYPE svg PUBLIC "-//W3C//DTD SVG 20010904//EN"
 "http://www.w3.org/TR/2001/REC-SVG-20010904/DTD/svg10.dtd">
<svg version="1.0" xmlns="http://www.w3.org/2000/svg"
 width="789.000000pt" height="529.000000pt" viewBox="0 0 789.000000 529.000000"
 preserveAspectRatio="xMidYMid meet">
<metadata>
Created by potrace 1.16, written by Peter Selinger 2001-2019
</metadata>
<g transform="translate(0.000000,529.000000) scale(0.100000,-0.100000)"
fill="#000000" stroke="none">
<path d="M5360 4496 c-20 -12 -100 -15 -420 -15 -323 -1 -416 -4 -512 -19
-112 -17 -116 -18 -87 -31 21 -9 54 -11 112 -7 185 14 741 18 794 6 80 -18 65
-49 -24 -50 -53 0 -41 -26 14 -34 26 -3 56 -15 67 -25 19 -17 40 -22 126 -33
19 -2 26 3 31 22 22 77 33 129 33 160 l1 35 -55 2 c-33 2 -65 -3 -80 -11z"/>
<path d="M6292 4280 c-7 -11 -23 -20 -37 -20 -30 0 -33 -16 -6 -25 47 -15 42
-84 -10 -161 -47 -69 -63 -129 -49 -180 12 -42 12 -42 89 -63 43 -12 88 -21
101 -21 13 0 40 -11 59 -25 45 -31 175 -50 193 -28 6 8 17 12 23 9 15 -6 25 2
54 43 13 18 24 44 24 58 0 23 0 23 18 7 15 -13 18 -29 16 -73 -2 -56 -2 -56
28 -56 27 0 30 4 38 44 9 46 23 45 30 -4 l4 -30 2 33 c1 34 9 39 30 20 11 -11
13 -9 9 8 -7 27 11 134 22 134 5 0 12 -5 15 -10 8 -13 25 -3 25 16 0 8 -10 14
-25 14 -13 0 -28 7 -33 16 -8 14 -29 16 -145 16 l-136 -2 -11 40 c-14 50 -27
58 -35 20 l-7 -30 -76 5 c-42 4 -78 8 -80 10 -3 2 3 27 12 55 10 31 14 64 10
85 -3 18 -3 43 1 54 6 21 7 21 36 4 16 -10 29 -21 29 -25 0 -14 24 -9 65 13
28 15 50 20 81 16 23 -2 47 -1 54 3 15 9 -50 17 -163 19 -49 2 -110 9 -135 17
-67 20 -105 18 -120 -6z"/>
<path d="M5829 4234 c-7 -9 -13 -37 -14 -64 -1 -26 -7 -55 -14 -64 -21 -25 -9
-59 24 -71 17 -5 35 -16 41 -24 18 -23 34 -3 34 45 0 42 -11 57 -25 33 -5 -7
-14 -4 -26 7 -18 16 -18 18 -2 36 10 11 24 16 35 12 22 -7 24 9 3 26 -8 7 -15
28 -15 46 0 37 -18 45 -41 18z"/>
<path d="M2770 4144 c-25 -7 -52 -17 -60 -22 -9 -5 -31 -13 -50 -17 -19 -4
-56 -20 -82 -35 -25 -16 -64 -32 -85 -36 -21 -3 -56 -14 -78 -24 -22 -10 -65
-28 -95 -40 -30 -13 -68 -32 -85 -44 -16 -12 -73 -44 -125 -70 -52 -27 -108
-61 -125 -76 -16 -15 -41 -31 -55 -35 -14 -4 -41 -19 -60 -34 -19 -15 -46 -31
-60 -34 -26 -7 -100 -71 -100 -86 0 -5 -14 -12 -31 -16 -36 -8 -99 -60 -99
-82 0 -8 -23 -36 -51 -61 -28 -26 -55 -56 -60 -67 -18 -37 -37 -68 -47 -74
-13 -8 -112 -214 -112 -232 0 -8 -4 -19 -8 -24 -16 -18 -32 -92 -32 -146 0
-30 -1 -70 -1 -89 0 -46 8 -110 15 -117 3 -3 12 0 21 7 10 8 12 17 5 29 -13
25 22 253 40 259 6 2 17 18 25 35 40 85 75 121 96 100 10 -10 9 -32 0 -98 -11
-70 -11 -93 0 -130 13 -42 15 -45 49 -45 48 0 103 39 184 130 8 8 14 27 14 42
-1 42 48 95 119 130 61 31 123 81 123 99 0 5 7 17 16 27 21 23 83 114 91 132
3 8 19 36 36 62 24 38 40 51 80 65 27 10 57 28 65 41 8 13 27 29 41 37 14 7
36 22 47 34 12 11 51 34 85 51 132 64 139 68 139 96 0 42 36 91 73 100 l32 8
-35 6 c-26 4 -36 11 -40 29 -7 31 -26 38 -33 11 -4 -15 -13 -20 -36 -20 -26 0
-31 4 -31 23 0 18 15 31 68 60 82 46 99 56 133 79 15 9 40 20 55 24 16 4 34
13 41 20 7 7 18 14 25 17 7 2 11 6 8 9 -3 3 -25 -1 -50 -8z"/>
<path d="M4100 4040 c0 -12 -7 -20 -16 -20 -9 0 -27 -11 -40 -25 -28 -30 -36
-31 -58 -6 -11 13 -15 27 -11 40 4 12 2 21 -4 21 -6 0 -11 -4 -11 -10 0 -5 -6
-10 -14 -10 -8 0 -21 -17 -29 -37 -15 -37 -14 -38 10 -45 13 -4 31 -12 38 -18
12 -10 23 -6 55 20 39 31 41 31 71 16 34 -17 51 -13 42 9 -3 8 -1 16 3 16 60
8 62 7 68 -17 6 -24 8 -24 74 -18 93 10 107 27 34 44 -31 7 -70 16 -86 21 -16
5 -41 9 -56 9 -15 0 -33 7 -40 15 -17 21 -30 19 -30 -5z"/>
<path d="M3540 3991 c-15 -29 5 -74 40 -89 17 -8 27 -19 24 -27 -7 -18 30 -29
55 -16 13 7 22 8 26 1 11 -17 50 -11 63 10 7 12 23 20 40 20 32 0 72 25 72 46
0 8 6 14 14 14 11 0 26 20 26 35 0 2 -22 6 -49 10 -42 6 -54 3 -79 -15 -17
-13 -33 -31 -35 -41 -7 -26 -47 -25 -47 1 0 16 -7 20 -30 20 -22 0 -33 6 -41
23 -13 29 -64 34 -79 8z"/>
<path d="M5887 3856 c-16 -35 -14 -46 11 -46 7 0 21 -9 30 -20 18 -21 135 -61
149 -51 4 3 10 13 12 21 13 51 11 55 -41 93 -42 30 -61 37 -98 37 -43 0 -48
-3 -63 -34z"/>
<path d="M3580 3759 c-19 -10 -52 -19 -72 -19 -36 0 -38 -1 -38 -34 l0 -33
128 3 c70 1 135 3 145 3 12 1 17 9 17 29 0 33 -8 44 -40 58 -40 17 -102 13
-140 -7z"/>
<path d="M6150 3725 c1 -13 21 -37 41 -50 9 -5 42 -27 74 -48 31 -21 70 -40
85 -44 16 -3 37 -14 46 -24 9 -11 24 -19 32 -19 8 0 34 -16 58 -35 23 -19 51
-35 61 -35 10 0 35 -9 56 -20 20 -11 44 -20 53 -20 9 0 50 -20 91 -45 40 -25
77 -45 82 -45 16 0 61 -42 56 -51 -10 -15 5 -10 22 7 14 13 14 20 4 36 -14 22
-6 58 14 58 8 0 11 7 8 20 -4 14 1 21 21 26 15 3 29 4 32 1 3 -2 21 -1 41 3
30 7 36 6 40 -10 3 -10 18 -23 35 -29 l29 -10 -26 -36 c-31 -40 -41 -43 -48
-15 -3 11 -13 23 -24 27 -10 3 -22 13 -26 20 -12 20 -27 6 -27 -26 0 -15 -7
-36 -15 -47 -19 -25 -19 -31 5 -37 11 -3 20 -1 20 4 0 5 5 9 11 9 6 0 8 -7 5
-15 -4 -10 3 -19 19 -25 13 -5 29 -18 35 -29 6 -12 23 -24 38 -27 15 -4 36
-12 48 -19 18 -12 147 -55 162 -55 3 0 1 5 -6 12 -9 9 4 18 51 41 34 16 65 35
70 43 4 7 14 11 23 7 9 -3 24 4 35 16 18 19 33 23 109 25 20 1 26 7 28 29 3
26 7 28 40 26 57 -3 62 -1 62 26 0 27 15 34 24 10 11 -30 42 -15 37 18 0 4 3
7 9 7 6 0 6 9 0 26 -6 14 -10 27 -10 28 0 2 18 6 40 10 26 4 40 11 40 21 0 8
7 15 15 15 11 0 15 11 15 35 0 31 -2 34 -17 26 -10 -5 -32 -25 -50 -45 -17
-20 -38 -36 -47 -36 -9 0 -16 -4 -16 -9 0 -13 -60 -55 -67 -47 -4 4 -1 12 5
18 17 17 15 29 -3 22 -8 -3 -17 -14 -20 -25 -4 -11 -15 -19 -29 -19 -29 0 -39
-10 -25 -26 15 -18 4 -44 -18 -44 -10 0 -27 -6 -38 -13 -11 -8 -29 -17 -40
-20 -11 -3 -40 -13 -65 -22 -28 -11 -73 -17 -120 -16 -64 0 -77 3 -89 21 -16
24 -71 28 -71 5 0 -8 -3 -15 -7 -15 -5 0 -33 -3 -63 -5 -30 -3 -49 -2 -42 1 6
3 12 12 12 20 0 10 13 14 49 14 47 0 84 21 66 38 -4 4 -10 1 -12 -5 -5 -13
-43 -19 -43 -7 0 20 31 32 67 27 36 -5 42 -3 48 18 5 16 2 26 -11 36 -10 7
-19 23 -19 35 0 12 -6 23 -12 25 -7 3 -13 -2 -13 -11 0 -14 -3 -14 -20 -4 -15
10 -29 10 -62 1 -24 -6 -45 -8 -48 -5 -11 15 -59 30 -79 25 -15 -4 -21 -1 -21
11 0 10 -8 16 -22 16 -21 0 -21 -1 -3 -14 18 -13 18 -14 -4 -21 -23 -7 -51 9
-51 30 0 12 28 26 80 41 60 16 65 43 13 68 -32 15 -45 16 -122 5 -68 -10 -107
-10 -180 0 -105 13 -151 34 -148 65 3 28 -65 43 -96 21 -29 -20 -174 -20 -201
0 -11 8 -29 15 -41 15 -12 0 -26 5 -33 12 -7 7 -12 8 -12 3z"/>
<path d="M7565 3666 c-22 -6 -46 -15 -53 -20 -8 -4 -48 -10 -90 -11 -42 -2
-115 -7 -162 -12 l-85 -7 75 -7 c97 -9 394 -1 426 11 13 5 24 15 24 23 0 37
-54 46 -135 23z"/>
<path d="M3764 3618 c-18 -28 -21 -90 -7 -119 13 -27 19 -29 70 -29 40 0 62
-5 80 -20 14 -11 40 -20 59 -20 18 0 34 -6 37 -12 2 -8 21 -13 47 -13 51 0 64
-20 23 -36 l-28 -11 26 -21 c15 -12 30 -32 33 -44 9 -28 46 -39 76 -23 13 7
47 14 77 17 42 4 58 2 73 -12 24 -21 26 -45 5 -45 -8 0 -15 -7 -15 -15 0 -8 5
-15 10 -15 21 0 80 -46 80 -62 0 -27 70 -25 77 2 4 15 14 20 42 20 44 0 61 14
61 52 0 15 7 31 18 37 15 8 14 11 -12 21 -36 13 -28 24 12 15 30 -6 30 -6 25
-66 -5 -46 -3 -59 8 -60 8 -1 25 -2 38 -2 13 -1 26 -8 28 -14 4 -10 -15 -13
-69 -13 -99 -1 -159 -14 -179 -39 -14 -18 -21 -19 -50 -9 -19 6 -42 15 -51 19
-24 12 -65 11 -73 -1 -10 -17 6 -80 21 -80 21 0 17 -28 -6 -40 -11 -6 -18 -15
-15 -19 9 -16 60 -19 87 -5 34 18 38 18 38 -2 0 -8 5 -12 10 -9 6 4 8 15 5 26
-4 13 -2 19 8 19 8 0 21 9 28 19 12 17 21 18 73 11 32 -5 62 -14 66 -20 7 -12
155 -18 166 -7 4 3 1 13 -6 22 -10 12 -10 15 3 15 9 0 17 -10 19 -22 3 -23 4
-23 175 -22 150 0 175 3 192 18 21 19 62 18 69 -2 2 -7 -9 -15 -27 -18 -17 -4
-36 -13 -42 -20 -9 -11 -6 -16 16 -24 39 -15 85 -12 92 5 3 9 18 22 34 31 23
12 32 12 49 2 15 -10 22 -10 32 0 9 9 7 12 -11 12 -25 0 -51 21 -51 42 0 10
15 14 51 15 59 1 96 17 105 47 4 12 12 24 18 28 7 5 4 8 -6 8 -10 0 -18 5 -18
11 0 6 -6 9 -14 6 -8 -3 -37 3 -65 13 -28 11 -58 17 -67 13 -13 -5 -12 -1 4
15 20 20 21 36 3 67 -20 36 18 75 73 75 29 0 38 5 46 24 6 16 19 25 42 29 59
10 133 28 155 39 11 6 38 8 60 6 34 -4 105 17 172 51 32 16 23 31 -18 31 -34
0 -41 -3 -41 -20 0 -20 -4 -22 -62 -24 -32 -1 -33 1 -36 41 -2 32 -10 48 -30
63 -20 16 -23 23 -13 29 8 5 11 13 7 19 -8 13 -48 3 -59 -14 -6 -11 -16 -9
-46 7 -28 14 -52 19 -81 16 -46 -5 -60 -18 -60 -59 0 -21 -6 -28 -30 -33 -16
-4 -30 -10 -30 -14 0 -3 14 -12 30 -18 17 -6 30 -16 30 -22 0 -16 -48 -25 -64
-11 -20 16 -60 -5 -52 -27 4 -10 -4 -24 -21 -39 -27 -23 -27 -24 -8 -39 20
-15 20 -16 -2 -31 -24 -17 -31 -44 -12 -44 5 0 7 -4 4 -10 -3 -5 -24 -10 -45
-10 -21 0 -42 5 -45 10 -3 6 -16 10 -29 10 -20 0 -46 16 -46 30 0 3 12 6 28 5
20 0 28 5 30 22 3 17 -3 24 -22 29 -32 8 -66 -3 -66 -21 0 -16 -30 -35 -54
-35 -8 0 -32 11 -52 25 -42 29 -74 32 -74 9 0 -13 -6 -11 -24 9 -13 14 -37 29
-53 33 -15 4 -34 11 -40 17 -9 6 -13 6 -13 -1 0 -6 -7 -9 -15 -6 -9 4 -13 13
-10 23 3 11 -5 27 -21 42 l-27 24 7 -30 c4 -16 12 -31 17 -33 12 -5 11 -39 -2
-47 -7 -5 -4 -14 7 -26 16 -18 16 -19 -12 -19 -16 0 -44 -4 -63 -10 -18 -5
-53 -7 -77 -3 -40 5 -44 8 -44 35 0 24 -5 30 -29 34 -17 4 -32 12 -35 20 -3 8
-12 14 -19 14 -8 0 -20 6 -26 14 -6 7 -47 19 -91 26 -85 13 -123 31 -105 49 8
8 20 8 40 0 31 -11 85 1 85 19 0 11 -154 42 -204 42 -20 0 -36 -5 -36 -11 0
-18 -133 -3 -183 20 -84 38 -150 50 -163 29z"/>
<path d="M2851 3561 c-6 -11 -8 -33 -5 -50 4 -20 2 -31 -5 -31 -6 0 -11 5 -11
10 0 11 -48 3 -67 -12 -6 -5 -22 -6 -36 -3 -36 9 -42 -10 -12 -39 14 -14 25
-30 25 -36 0 -7 6 -10 13 -7 6 2 33 -4 59 -14 26 -10 54 -16 63 -13 21 8 19
-8 -5 -39 -24 -30 -26 -57 -5 -57 8 0 15 -4 15 -9 0 -5 -7 -14 -15 -21 -8 -7
-15 -21 -15 -32 0 -10 -4 -16 -10 -13 -5 3 -10 14 -10 24 0 20 -52 37 -58 20
-6 -14 -24 -11 -37 8 -11 15 -14 14 -29 -14 -18 -35 -12 -62 13 -64 95 -9 248
-4 270 7 32 17 53 18 69 2 9 -9 18 -9 38 1 22 10 29 9 35 -1 5 -8 3 -17 -6
-24 -22 -17 -18 -24 13 -24 37 0 46 -10 25 -25 -22 -16 -10 -45 19 -44 38 0
112 -18 116 -30 2 -6 10 -11 19 -11 8 0 13 -7 11 -17 -4 -20 47 -58 63 -47 14
8 39 -15 39 -38 0 -35 -29 -78 -53 -78 -20 1 -21 2 -4 14 9 7 17 22 17 34 0
18 -3 19 -29 9 -19 -7 -27 -16 -23 -25 3 -10 0 -13 -9 -10 -9 3 -14 19 -14 44
0 38 -1 39 -39 42 -48 4 -85 -11 -110 -45 -19 -26 -19 -26 2 -21 16 4 28 -1
41 -18 10 -13 22 -24 25 -24 22 0 86 -38 90 -53 4 -15 10 -18 28 -12 13 4 33
7 44 7 16 0 20 5 17 19 -7 25 6 24 37 -3 16 -14 21 -22 13 -25 -34 -12 17 -47
65 -44 31 1 28 -25 -4 -41 -42 -20 -31 -38 16 -27 11 3 14 -4 13 -23 -2 -26 1
-28 35 -30 83 -3 113 -6 130 -13 29 -11 -7 -24 -76 -26 -56 -2 -59 -3 -49 -20
8 -13 18 -17 31 -13 11 4 45 8 75 10 31 1 86 6 124 10 58 6 67 5 67 -10 0 -9
8 -16 18 -17 10 0 12 -3 5 -6 -18 -7 -16 -20 8 -44 13 -13 25 -17 30 -12 6 6
4 15 -6 23 -35 29 -11 50 37 31 21 -8 24 -15 22 -50 -2 -37 0 -40 17 -31 12 7
33 7 61 1 23 -5 46 -8 50 -5 4 3 13 2 19 -2 8 -4 7 -9 -2 -15 -10 -6 -8 -9 9
-9 12 0 31 5 41 12 15 9 24 7 49 -10 17 -13 45 -22 66 -22 27 0 36 -4 36 -17
0 -10 7 -27 15 -37 13 -17 27 -20 126 -19 66 1 116 6 122 12 14 14 54 14 62 1
4 -6 25 -10 48 -10 74 1 126 -10 120 -26 -3 -8 -11 -14 -19 -14 -8 0 -14 -5
-14 -11 0 -6 11 -8 29 -4 19 4 30 2 34 -7 3 -9 24 -13 71 -12 62 2 66 1 72
-22 4 -14 16 -31 27 -39 21 -15 21 -15 -5 -15 -15 0 -30 5 -33 10 -11 18 -23
1 -18 -25 3 -13 9 -23 13 -20 4 3 10 -4 13 -15 3 -14 14 -20 34 -21 15 -1 33
-2 38 -4 6 -1 16 -3 23 -3 14 -2 16 -21 3 -41 -6 -9 -15 -11 -27 -6 -11 4 -26
8 -34 9 -63 6 -138 21 -155 31 -11 8 -55 14 -99 14 -58 1 -85 6 -98 18 -14 13
-20 13 -33 3 -9 -8 -28 -10 -52 -6 -21 4 -49 8 -63 10 -14 2 -27 4 -30 6 -3 1
-22 1 -44 0 -22 -1 -42 4 -46 11 -5 7 -35 14 -72 16 -34 2 -78 8 -96 14 -28 9
-37 8 -52 -6 -16 -14 -21 -15 -35 -3 -23 19 -34 31 -50 53 -13 19 -15 19 -32
3 -17 -17 -16 -18 5 -18 12 0 22 -4 22 -10 0 -5 -5 -10 -10 -10 -18 0 -70 30
-70 40 0 6 -10 10 -22 10 -28 0 -88 22 -88 32 0 4 -8 8 -19 8 -10 0 -24 6 -31
14 -6 8 -18 12 -26 9 -12 -4 -12 -8 3 -18 22 -16 18 -21 -27 -29 -25 -5 -31
-4 -20 3 12 9 12 11 -3 17 -9 3 -23 2 -30 -4 -8 -6 -21 -6 -37 0 -22 8 -23 10
-7 19 18 11 24 39 7 39 -5 0 -10 -4 -10 -10 0 -5 -13 -8 -30 -7 -16 1 -30 7
-30 12 0 6 -13 15 -29 21 -30 12 -45 50 -29 78 6 11 4 21 -6 31 -21 22 -45 19
-39 -4 5 -21 -25 -37 -41 -21 -14 14 -29 13 -23 -2 6 -18 -31 -68 -51 -68 -9
0 -30 7 -46 15 -15 8 -33 15 -38 15 -19 0 -104 73 -120 103 -15 29 -17 30 -23
12 -23 -68 -30 -82 -47 -97 -11 -10 -16 -18 -12 -18 5 0 20 -9 33 -19 29 -22
21 -47 -9 -29 -11 7 -22 9 -26 6 -12 -13 7 -27 44 -34 20 -4 43 -11 50 -17 7
-6 52 -11 100 -11 70 -1 87 -4 87 -16 0 -8 4 -18 9 -22 5 -3 9 -20 8 -36 -1
-32 29 -72 55 -72 12 0 13 -3 4 -14 -11 -14 9 -22 77 -31 50 -8 64 -44 19 -46
-30 -2 137 -22 191 -23 23 0 42 -4 42 -8 0 -7 17 -12 142 -44 48 -12 69 -22
73 -35 8 -23 35 -39 67 -39 93 1 148 -2 148 -9 0 -4 15 -15 34 -24 30 -14 36
-14 46 -2 9 11 30 14 84 10 39 -2 138 -7 221 -10 111 -4 154 -10 166 -21 9 -8
38 -15 70 -15 54 -1 109 -21 109 -39 0 -6 7 -10 15 -10 8 0 15 7 15 15 0 21
66 48 125 51 28 1 69 7 90 13 50 14 119 14 167 1 29 -9 37 -16 40 -38 3 -25 7
-28 63 -35 67 -8 214 -9 227 0 5 2 21 2 36 -2 21 -5 23 -8 11 -16 -9 -6 14 -9
71 -8 83 2 118 12 162 48 12 9 30 11 62 7 40 -6 90 -12 176 -20 14 -1 33 2 43
7 20 9 47 -7 47 -27 0 -7 -18 -20 -41 -30 -27 -12 -39 -23 -36 -34 2 -10 10
-15 18 -13 8 2 31 3 52 2 24 -1 37 3 37 11 0 9 3 9 11 1 7 -7 25 -9 42 -6 21
4 28 3 23 -5 -8 -14 -46 -20 -168 -26 -88 -4 -97 -3 -101 15 -6 23 -49 26 -67
4 -7 -8 -23 -15 -35 -15 -16 0 -25 -8 -29 -25 -6 -24 -36 -36 -36 -14 0 5 -5
7 -10 4 -6 -4 -18 -1 -26 6 -13 10 -17 10 -24 0 -10 -17 -103 -32 -150 -25
-29 5 -36 10 -36 27 1 13 -6 23 -16 25 -11 2 -18 -3 -18 -13 0 -20 -39 -35
-91 -35 -30 0 -39 4 -39 18 -1 15 -2 15 -13 2 -21 -27 -73 -43 -117 -35 -23 4
-70 2 -107 -5 -49 -10 -74 -10 -101 -1 -21 6 -117 15 -214 19 -118 6 -182 13
-192 21 -9 8 -25 11 -37 8 -11 -3 -53 1 -92 8 -84 16 -243 31 -412 39 -112 6
-121 8 -142 31 -12 14 -29 25 -38 25 -8 0 -15 6 -15 13 0 6 -7 21 -15 31 -11
14 -18 16 -28 8 -10 -9 -27 -7 -66 6 -50 15 -53 15 -62 -1 -12 -20 -30 -22
-47 -5 -12 12 -18 14 -87 24 -63 9 -67 11 -56 33 15 27 -18 39 -37 14 -12 -17
-14 -17 -23 0 -6 9 -17 17 -24 17 -10 0 -15 10 -15 30 0 27 -3 30 -30 30 -36
0 -37 -6 -8 -37 15 -16 18 -27 11 -34 -7 -7 -14 -5 -23 6 -7 8 -23 15 -36 15
-13 0 -33 9 -44 20 -11 11 -26 20 -34 20 -8 0 -21 6 -28 13 -7 8 -30 17 -50
21 -21 4 -42 14 -47 24 -9 15 -13 15 -32 3 -19 -11 -23 -11 -31 3 -5 9 -19 16
-32 16 -13 0 -29 7 -37 16 -9 11 -22 14 -41 10 -21 -4 -28 -2 -28 9 0 8 -4 14
-9 12 -5 -1 -16 6 -24 17 -9 13 -26 18 -55 18 -32 -1 -45 4 -52 19 -6 10 -20
19 -31 19 -11 0 -22 7 -25 15 -4 8 -11 15 -18 15 -6 0 -32 11 -58 24 -50 24
-80 55 -92 94 -5 16 -13 21 -25 17 -11 -3 -28 4 -43 17 -45 40 -68 58 -76 58
-4 0 -19 12 -32 28 -14 15 -36 33 -50 40 -14 7 -38 31 -54 53 -17 21 -35 39
-41 39 -14 0 -55 42 -55 56 0 6 -13 9 -29 6 -26 -3 -30 0 -36 27 -4 21 -14 33
-29 37 -26 6 -59 46 -71 84 -12 42 -34 70 -55 70 -30 0 -26 -44 5 -64 14 -9
25 -26 25 -37 0 -12 14 -37 30 -56 17 -18 30 -38 30 -43 0 -4 17 -19 38 -31
53 -34 82 -68 82 -99 0 -25 30 -50 61 -50 6 0 17 -7 25 -15 8 -8 23 -20 33
-27 10 -7 21 -22 24 -33 5 -16 1 -23 -21 -32 -41 -18 -54 -18 -94 0 -50 23
-58 21 -58 -8 0 -14 -4 -25 -9 -25 -5 0 -9 -13 -9 -30 1 -35 22 -40 38 -9 13
24 35 20 35 -7 0 -10 5 -18 10 -16 6 1 10 6 10 11 0 20 14 22 45 6 21 -11 65
-17 136 -20 107 -3 154 -18 154 -49 0 -8 5 -16 12 -18 8 -3 9 -12 0 -36 -9
-26 -8 -32 4 -32 7 0 14 7 14 15 0 10 10 15 30 15 17 0 30 -5 30 -10 0 -6 11
-15 25 -20 29 -11 30 -18 9 -48 l-15 -22 65 0 c52 0 66 -3 66 -15 0 -10 10
-15 31 -15 23 0 41 -11 77 -49 39 -41 55 -50 94 -56 26 -4 53 -13 59 -21 6 -8
24 -14 39 -14 18 0 33 -8 44 -24 13 -21 21 -24 51 -19 28 5 35 2 35 -11 0 -18
88 -79 101 -70 17 10 9 24 -13 24 -17 0 -19 3 -10 12 8 8 15 8 27 -2 11 -9 19
-10 26 -3 13 13 104 -32 104 -52 0 -22 14 -29 21 -11 8 20 57 22 73 3 6 -8 8
-17 5 -20 -4 -3 9 -4 28 -1 41 7 61 -12 56 -53 -3 -26 -6 -28 -43 -25 -40 3
-40 3 -17 -13 16 -12 33 -15 57 -11 18 4 53 2 77 -5 23 -6 52 -12 63 -13 11
-1 28 -6 38 -11 10 -4 35 -5 56 -1 29 4 42 2 52 -10 7 -8 21 -13 31 -11 10 3
21 1 24 -5 3 -5 12 -7 20 -4 14 5 62 -16 73 -32 3 -5 23 -7 45 -4 36 4 38 6
32 33 -4 22 -1 31 14 39 29 16 54 12 68 -10 11 -18 20 -19 94 -15 94 6 83 6
163 0 33 -3 80 -6 105 -8 26 -2 64 -14 91 -30 25 -15 59 -30 77 -33 21 -4 32
-13 34 -27 2 -12 14 -27 28 -34 22 -11 25 -10 28 7 4 22 40 28 60 8 8 -8 15
-8 25 1 11 9 17 8 27 -4 7 -8 19 -15 26 -15 16 0 19 -36 4 -45 -9 -6 -66 -11
-320 -32 -41 -3 -176 -6 -300 -6 -236 0 -270 4 -366 48 -28 13 -73 27 -100 31
-27 4 -68 15 -92 25 -24 11 -61 19 -82 19 -45 0 -63 17 -23 22 25 3 26 4 10
19 -17 17 -67 15 -67 -3 0 -6 -11 -7 -24 -4 -14 3 -36 1 -50 -5 -37 -17 -110
4 -144 42 -25 27 -36 31 -137 44 -65 8 -134 24 -170 39 -52 21 -148 39 -208
37 -10 0 -27 9 -38 20 -11 11 -33 19 -50 19 -38 0 -107 19 -134 37 -11 7 -35
13 -55 13 -19 1 -46 7 -60 15 -14 8 -34 14 -45 15 -11 0 -36 15 -55 33 -54 51
-103 77 -146 77 -31 0 -41 5 -49 22 -6 13 -20 28 -32 34 -13 6 -31 18 -41 27
-21 19 -133 57 -168 57 -13 0 -24 4 -24 9 0 5 -14 14 -32 22 -17 7 -59 41 -94
76 -34 35 -68 63 -75 63 -6 0 -18 8 -25 17 -7 10 -16 14 -20 10 -13 -12 9 -40
45 -58 37 -18 51 -35 51 -66 0 -25 19 -38 73 -48 20 -4 37 -11 37 -16 0 -4 10
-19 23 -32 12 -14 33 -37 46 -51 13 -15 37 -30 53 -33 15 -3 28 -9 28 -13 0
-4 16 -15 36 -25 26 -12 33 -20 25 -28 -20 -20 -13 -57 14 -69 30 -14 59 5 50
33 -4 11 -2 19 4 19 12 0 27 -48 18 -57 -9 -8 19 -33 37 -33 9 0 16 -7 16 -15
0 -23 18 -18 53 15 38 35 47 37 47 9 0 -18 4 -20 31 -14 28 6 36 2 73 -36 22
-24 42 -42 44 -39 2 3 11 -8 20 -23 16 -27 16 -29 -2 -43 -20 -14 -11 -19 24
-14 31 4 119 -24 142 -45 14 -13 40 -26 58 -30 18 -4 46 -21 62 -39 23 -25 30
-28 38 -17 6 10 23 14 50 13 53 -4 83 -21 68 -39 -6 -7 -16 -13 -23 -13 -12 0
-25 -21 -25 -41 0 -11 34 -12 80 -3 24 5 30 11 27 25 -6 21 11 29 61 29 28 0
33 -3 24 -12 -21 -21 -14 -45 16 -51 73 -15 200 -19 221 -8 17 10 26 10 37 1
7 -7 21 -9 30 -6 9 3 35 1 58 -5 76 -21 73 -19 54 -33 -23 -17 -22 -22 3 -57
15 -22 28 -29 53 -29 17 0 38 -6 45 -12 10 -11 17 -8 34 14 21 25 24 26 55 13
18 -8 40 -21 48 -30 9 -8 24 -15 35 -15 10 0 19 -7 19 -15 0 -8 3 -15 6 -15 3
0 12 7 20 15 17 16 69 20 78 6 8 -13 85 -19 126 -10 28 6 39 4 56 -12 19 -17
22 -18 34 -4 15 18 44 19 62 2 24 -24 48 -27 170 -17 92 7 124 13 130 24 12
22 187 15 203 -8 7 -9 20 -13 33 -9 16 4 22 1 22 -11 0 -9 5 -16 10 -16 6 0
10 7 10 16 0 12 6 15 25 10 18 -5 27 -2 31 9 7 18 45 20 62 3 10 -10 15 -10
22 2 8 13 13 13 39 -3 36 -21 60 -22 68 -2 5 14 8 14 29 0 29 -19 34 -19 34
-1 0 18 56 47 76 39 7 -3 14 -9 14 -13 0 -14 38 -18 84 -8 25 5 46 13 46 18 0
4 14 10 30 13 18 4 30 13 30 22 0 8 12 20 28 26 15 6 35 15 44 20 23 12 55 11
78 -1 11 -6 21 -6 24 -1 3 5 36 8 74 8 44 0 81 6 104 17 30 15 42 16 75 6 41
-12 93 -1 161 34 15 8 49 17 77 21 31 5 57 16 73 32 16 16 43 27 80 33 85 14
159 38 165 54 3 8 21 16 39 18 24 2 36 10 46 31 10 21 18 26 36 21 27 -7 152
18 187 37 14 8 65 14 128 16 60 1 109 7 118 14 10 9 20 9 39 0 14 -6 31 -8 37
-4 7 4 19 8 27 8 9 0 14 8 13 20 -1 11 0 14 3 8 10 -23 40 -14 84 26 50 45 88
49 152 17 l36 -19 38 37 c31 30 62 44 78 34 2 -2 12 4 22 13 11 9 30 20 44 23
71 20 70 17 70 155 -1 91 -3 121 -11 109 -6 -11 -23 -18 -42 -19 -25 0 -28 -2
-13 -8 19 -7 19 -8 0 -15 -10 -4 -41 -10 -68 -12 -26 -2 -54 -9 -62 -15 -7 -6
-18 -8 -23 -5 -6 4 -23 -6 -38 -22 -44 -45 -70 -56 -89 -37 -15 14 -18 14 -33
1 -9 -8 -40 -18 -70 -22 -53 -7 -53 -7 -32 -24 20 -14 21 -18 7 -29 -19 -16
-66 -6 -66 13 0 8 -8 13 -17 12 -10 0 -17 5 -16 12 5 21 -13 13 -42 -20 l-28
-32 -15 22 c-8 12 -25 22 -38 22 -19 0 -24 5 -24 25 0 32 62 62 96 46 18 -8
23 -5 32 14 11 23 4 74 -10 75 -63 1 -80 -2 -95 -20 -10 -11 -22 -20 -27 -20
-5 0 -19 -8 -30 -18 -20 -18 -99 -39 -238 -62 -97 -17 -214 -15 -243 4 -14 9
-33 16 -43 16 -17 0 -18 6 -14 57 6 68 24 89 57 67 12 -8 24 -11 28 -8 3 3 38
12 78 20 40 7 76 19 80 26 5 7 14 13 21 14 14 1 20 3 105 36 46 18 56 18 89 6
20 -7 40 -22 45 -33 4 -11 8 -14 8 -8 1 12 78 53 99 53 6 0 12 -7 16 -15 3 -8
12 -15 21 -15 8 0 15 -9 15 -20 0 -11 4 -20 9 -20 13 0 22 59 12 78 -13 25 -3
46 15 31 8 -6 14 -8 15 -3 1 5 5 -2 9 -16 7 -22 8 -21 9 13 1 36 21 51 36 27
3 -5 13 -10 21 -10 8 0 14 5 14 10 0 6 -7 10 -15 10 -8 0 -15 7 -15 15 0 20
41 36 58 23 6 -6 12 -7 12 -4 0 4 9 2 20 -4 14 -7 20 -7 20 0 0 5 14 10 30 10
17 0 30 5 30 11 0 6 -10 9 -23 7 -20 -4 -23 -1 -19 19 2 13 7 23 11 23 3 1 25
5 48 9 37 7 42 6 47 -12 3 -13 10 -18 20 -14 8 3 18 2 21 -3 9 -14 45 -12 46
3 1 6 0 21 -1 31 -1 13 3 17 14 13 9 -4 16 -2 16 3 0 16 27 11 34 -6 8 -21 26
-8 26 20 0 33 19 46 67 46 38 0 43 3 43 23 0 21 -8 25 -77 42 -85 20 -113 33
-113 53 0 7 -4 11 -9 7 -5 -3 -16 1 -23 9 -12 11 -19 12 -45 1 -17 -7 -41 -23
-52 -34 -28 -28 -46 -27 -27 1 23 32 20 38 -13 27 -22 -8 -28 -15 -24 -30 4
-13 0 -19 -11 -19 -9 0 -16 4 -16 9 0 13 -42 21 -56 11 -7 -7 -20 -4 -37 10
-32 25 -51 26 -44 1 7 -27 -58 -54 -100 -42 -17 5 -36 5 -45 0 -8 -4 -50 -11
-94 -14 -43 -4 -99 -8 -124 -10 -118 -10 -296 -13 -309 -5 -18 9 -170 -13
-200 -29 -29 -16 -40 -13 -34 9 7 27 -6 25 -41 -5 -21 -18 -41 -25 -71 -25
-23 0 -45 3 -49 7 -4 4 -23 8 -42 9 -21 0 -44 10 -61 25 -17 15 -24 18 -21 8
5 -13 0 -14 -35 -9 -23 4 -50 11 -61 15 -11 5 -21 3 -26 -5 -7 -11 -11 -11
-23 -1 -11 9 -17 9 -22 1 -4 -7 -15 -10 -25 -7 -9 2 -24 0 -33 -5 -13 -7 -15
-5 -11 7 5 11 -1 15 -25 15 -21 0 -31 -5 -31 -15 0 -8 -8 -15 -17 -16 -79 -5
-109 -8 -187 -22 -100 -17 -166 -13 -166 11 0 12 -3 12 -16 2 -15 -13 -76 -16
-126 -5 -15 3 -29 1 -32 -3 -7 -12 -66 -2 -66 10 0 6 -11 8 -25 6 -14 -3 -25
-1 -25 3 0 5 -6 9 -14 9 -7 0 -39 11 -70 25 -31 14 -56 20 -56 15 0 -6 -7 -10
-15 -10 -18 0 -35 38 -27 59 4 11 8 10 19 -5 12 -17 13 -17 13 5 0 15 -5 22
-17 20 -36 -3 -51 1 -57 18 -4 10 -1 22 8 28 11 9 6 11 -24 10 -21 0 -46 -7
-55 -15 -15 -12 -19 -11 -36 10 l-19 25 -6 -22 c-7 -26 -39 -31 -48 -8 -4 11
-13 14 -31 9 -21 -5 -27 -2 -31 13 -5 17 -12 19 -55 15 -45 -4 -49 -3 -49 17
0 11 -4 21 -10 21 -5 0 -7 7 -4 15 4 8 15 15 25 15 10 0 19 4 19 9 0 17 -25
18 -53 2 -22 -13 -29 -13 -36 -3 -4 7 -20 19 -34 27 -22 11 -28 11 -38 -1 -10
-13 -15 -12 -38 2 -14 10 -29 23 -33 30 -11 17 -75 16 -82 -2 -3 -8 -13 -14
-22 -14 -12 0 -14 5 -9 18 5 9 10 31 12 48 3 20 14 36 29 45 27 14 32 29 9 29
-8 0 -15 5 -15 11 0 7 -10 9 -24 5 -14 -3 -28 -2 -31 4 -3 5 -12 10 -18 10 -8
0 -7 -3 2 -9 17 -11 7 -41 -14 -41 -11 0 -15 7 -13 23 2 16 -3 23 -18 25 -28
4 -50 -59 -26 -75 11 -6 1 -9 -35 -10 -41 -1 -52 3 -56 17 -3 14 -17 19 -56
21 -29 2 -56 0 -62 -6 -6 -6 -19 -3 -37 7 -15 9 -42 19 -60 23 -18 3 -39 13
-47 22 -13 12 -18 13 -31 2 -11 -9 -18 -9 -26 -1 -16 16 -28 15 -28 -3 0 -10
-10 -15 -30 -15 -23 0 -41 11 -75 48 -25 26 -45 41 -45 35 0 -22 -17 -14 -57
25 -21 21 -53 47 -71 57 -17 11 -32 25 -32 32 0 7 -16 28 -35 47 -19 20 -35
40 -35 45 0 5 -9 13 -20 16 -11 3 -20 13 -20 21 0 8 -13 23 -30 32 -16 9 -30
23 -30 30 0 7 -9 22 -19 33 -19 21 -19 21 -38 2 -16 -16 -24 -17 -44 -9 -40
18 -69 48 -69 73 0 18 -6 23 -25 23 -16 0 -40 15 -68 43 -23 23 -70 66 -104
95 -58 49 -63 51 -72 33z m2756 -1438 c11 -30 43 -45 43 -20 0 7 14 12 35 13
19 0 35 -3 35 -8 0 -14 27 -9 40 7 13 16 50 21 50 7 0 -5 -11 -14 -25 -20 -14
-7 -25 -20 -25 -31 0 -25 16 -36 24 -16 9 24 36 18 36 -9 0 -15 -7 -26 -20
-29 -24 -6 -27 -27 -4 -27 9 0 14 -3 12 -7 -2 -5 -12 -25 -21 -45 -10 -21 -23
-38 -30 -38 -19 0 -37 21 -37 42 0 24 -17 23 -30 -2 -9 -17 -17 -20 -48 -14
-20 4 -45 11 -55 16 -10 5 -57 16 -105 24 -127 21 -182 35 -182 45 0 5 5 9 10
9 6 0 10 7 10 15 0 12 -7 14 -27 9 -16 -4 -34 -11 -40 -16 -7 -6 -21 -7 -30
-4 -14 6 -15 9 -4 16 8 4 20 6 28 3 16 -6 17 24 3 61 -5 14 -7 26 -4 26 14 0
64 -46 64 -59 0 -12 6 -9 19 8 13 17 25 22 40 18 17 -4 19 -2 12 12 -8 14 -5
17 12 16 12 0 28 -4 35 -8 7 -5 26 -6 42 -2 31 7 39 -2 18 -23 -6 -6 -9 -14
-5 -18 6 -6 11 -3 61 41 34 29 54 32 63 8z m879 -575 c-8 -46 -46 -118 -63
-118 -6 0 -15 -9 -18 -20 -6 -19 -35 -27 -48 -14 -3 4 -53 6 -111 5 -59 -1
-107 2 -110 8 -4 6 -19 6 -43 -1 -20 -5 -52 -8 -70 -5 -18 3 -35 2 -38 -2 -2
-5 -16 -6 -30 -3 -19 3 -25 0 -25 -14 0 -17 -55 -53 -64 -43 -2 2 -8 13 -14
24 -10 19 -11 19 -21 -5 l-10 -25 0 29 c-1 26 -3 28 -33 24 -24 -4 -36 0 -48
15 -14 16 -20 18 -38 8 -18 -10 -22 -9 -22 4 0 19 -14 19 -43 1 -12 -8 -57
-16 -101 -19 -57 -3 -73 -1 -60 6 11 6 23 16 27 24 4 7 18 13 31 13 13 0 29 7
36 15 14 17 130 22 130 6 0 -18 34 -22 43 -5 9 15 81 53 103 54 6 0 10 -10 10
-21 -1 -33 22 -35 26 -2 2 18 9 28 19 28 9 0 23 5 30 11 8 6 32 15 54 19 22 4
46 12 53 18 10 7 27 7 64 -2 41 -11 52 -11 58 -1 4 7 14 10 22 8 8 -3 61 0
119 6 57 7 124 13 148 13 l43 0 -6 -39z"/>
<path d="M6460 3349 c0 -7 8 -18 18 -26 15 -13 15 -13 -5 -4 -30 15 -73 14
-73 -2 0 -21 39 -57 60 -57 11 0 20 -7 20 -15 0 -17 -11 -19 -25 -6 -6 5 -29
11 -52 14 -42 5 -42 5 -36 -24 4 -22 2 -29 -11 -29 -9 0 -16 -7 -16 -15 0 -23
42 -60 64 -56 10 1 30 -3 42 -10 19 -10 35 -10 79 1 31 7 58 16 60 19 5 10
-30 48 -51 55 -10 3 -25 15 -32 27 -11 18 -11 24 4 40 9 10 14 25 11 34 -5 11
0 15 16 15 29 0 51 -34 38 -58 -12 -23 -2 -39 31 -47 21 -5 27 -3 33 15 4 11
2 27 -4 33 -6 8 -6 18 -1 27 12 20 -7 40 -39 40 -15 0 -37 9 -49 20 -23 21
-82 28 -82 9z"/>
<path d="M3813 3313 c-13 -8 -23 -22 -23 -30 0 -8 -6 -13 -12 -10 -7 2 -12 11
-12 20 2 15 -1 15 -27 2 -19 -11 -32 -27 -39 -54 -10 -39 -12 -40 -65 -46 -58
-8 -77 -27 -51 -53 11 -11 19 -12 28 -5 17 13 68 23 68 12 0 -4 -12 -12 -27
-17 -24 -9 -25 -11 -7 -11 12 -1 27 6 34 14 7 8 19 15 26 15 8 0 19 9 26 20
14 21 48 28 48 9 0 -8 12 -10 35 -6 19 3 35 2 35 -3 0 -5 7 -7 16 -3 11 4 12
9 5 16 -16 16 -13 54 4 61 18 7 19 23 3 59 -15 30 -33 33 -65 10z"/>
<path d="M7857 3089 c-15 -11 -25 -25 -21 -30 3 -5 9 -7 14 -4 9 5 36 -23 28
-30 -2 -3 -20 0 -39 5 -42 12 -109 13 -109 2 0 -5 19 -17 43 -27 23 -10 50
-25 60 -33 23 -20 22 -52 -2 -52 -31 0 -73 19 -66 30 3 6 -1 13 -10 16 -24 10
-31 -4 -9 -20 16 -13 17 -18 7 -35 -27 -44 -6 -73 52 -73 22 0 39 -6 42 -14 3
-8 14 -14 24 -14 18 0 19 9 19 150 0 83 -1 150 -2 150 -2 0 -15 -10 -31 -21z"/>
<path d="M6924 3088 c-3 -5 -3 -16 0 -26 4 -12 -1 -26 -14 -37 -24 -22 -26
-35 -5 -35 8 0 24 -6 35 -12 17 -11 22 -10 29 0 5 8 17 11 32 7 28 -7 79 9 79
25 0 14 -33 50 -46 50 -7 0 -14 6 -17 14 -6 15 -85 27 -93 14z"/>
<path d="M2544 3016 c-10 -21 -8 -25 23 -37 46 -18 69 -61 53 -99 -7 -16 -9
-33 -6 -38 3 -5 -6 -19 -19 -30 -33 -29 -32 -43 3 -40 21 2 27 -1 27 -17 1
-33 15 -46 49 -45 70 4 96 0 96 -15 0 -8 8 -15 18 -15 10 0 27 -6 37 -14 18
-13 18 -16 5 -41 -8 -15 -26 -32 -40 -37 -22 -8 -23 -11 -8 -19 12 -7 27 -3
53 11 36 20 39 20 81 4 28 -11 60 -15 89 -12 25 3 45 2 45 -3 0 -5 -6 -9 -14
-9 -7 0 -18 -6 -25 -13 -15 -18 5 -37 40 -37 17 0 35 -11 53 -32 14 -17 26
-26 26 -20 0 7 7 12 15 12 9 0 27 12 40 26 l24 26 -19 51 c-11 27 -22 70 -26
94 -7 50 -41 93 -73 93 -11 0 -21 6 -21 13 0 7 -10 18 -22 26 -21 13 -22 13
-9 -3 8 -9 11 -19 8 -22 -9 -9 -27 5 -27 22 0 8 -7 14 -15 14 -8 0 -15 4 -15
9 0 5 -26 12 -57 16 -50 5 -101 25 -184 71 -11 6 -33 23 -48 38 -15 14 -34 26
-42 26 -8 0 -30 16 -49 35 -40 41 -51 43 -66 11z"/>
<path d="M5606 3006 c6 -17 -53 -46 -92 -46 -36 0 -45 -47 -13 -72 13 -10 29
-22 36 -28 7 -5 17 -10 23 -10 5 0 10 -11 10 -25 0 -14 3 -25 8 -25 14 0 43
41 36 51 -8 14 25 49 48 49 13 0 18 -7 18 -25 0 -14 -4 -25 -10 -25 -5 0 -10
-5 -10 -11 0 -11 158 -5 208 8 28 7 27 10 -19 59 -46 51 -102 81 -167 90 -29
4 -55 11 -58 15 -9 15 -24 10 -18 -5z"/>
<path d="M6571 2991 c-11 -7 -9 -13 8 -30 11 -11 29 -21 39 -21 23 0 82 -52
82 -72 0 -9 7 -18 15 -22 30 -11 164 14 192 36 15 12 -1 48 -20 48 -7 0 -23
14 -35 30 -21 28 -27 30 -80 28 -31 -2 -86 0 -122 5 -36 4 -71 3 -79 -2z"/>
<path d="M4793 2928 c-20 -10 -41 -45 -31 -52 1 -2 32 0 68 4 51 5 67 3 76 -8
9 -12 24 -12 103 -1 92 13 117 27 93 51 -6 6 -36 12 -67 14 -41 2 -57 -2 -64
-13 -6 -11 -14 -14 -27 -8 -11 5 -21 9 -24 10 -3 1 -13 5 -23 9 -9 5 -23 4
-30 -2 -8 -7 -18 -7 -27 -2 -18 12 -19 12 -47 -2z"/>
<path d="M5925 2780 c-10 -11 -30 -20 -44 -20 -14 -1 -42 -14 -61 -30 l-34
-30 46 0 c37 0 47 -4 51 -20 5 -19 7 -19 49 -4 23 8 53 12 66 9 21 -5 22 -6 6
-31 -9 -13 -14 -27 -12 -30 11 -10 38 10 63 48 22 32 31 39 51 35 33 -6 38 6
13 29 -17 15 -24 16 -39 6 -30 -18 -39 -15 -57 23 -14 29 -22 35 -48 35 -19 0
-39 -8 -50 -20z"/>
<path d="M7306 2713 c-3 -4 -1 -12 6 -20 9 -11 4 -13 -31 -7 -30 5 -46 3 -59
-8 -29 -25 -47 -27 -73 -7 -28 22 -50 24 -67 7 -9 -9 -15 -9 -24 0 -18 18 -30
14 -23 -8 5 -15 2 -20 -13 -20 -11 0 -25 6 -31 14 -7 8 -21 12 -31 9 -14 -4
-20 0 -20 11 0 9 -7 16 -15 16 -17 0 -20 -25 -5 -35 12 -8 13 -35 1 -35 -5 0
-11 9 -14 20 -10 40 -67 11 -67 -35 0 -18 -4 -22 -20 -18 -16 4 -19 2 -14 -11
7 -19 16 -20 32 -4 8 8 15 8 27 -2 15 -13 19 -8 16 23 -3 20 15 23 26 3 10
-18 39 -22 80 -12 19 4 40 3 53 -4 27 -15 130 5 148 28 12 16 14 16 27 -2 15
-20 37 -13 28 9 -6 18 27 21 44 4 16 -16 33 -2 33 26 0 13 5 27 10 30 6 3 10
10 10 15 0 10 -26 20 -34 13z"/>
<path d="M7871 2297 c-7 -10 -24 -17 -36 -17 -12 0 -28 -7 -35 -15 -7 -8 -19
-15 -26 -15 -12 0 -12 -4 -2 -20 16 -25 1 -54 -30 -58 -11 -2 -26 -10 -32 -18
-7 -8 -20 -14 -30 -14 -9 0 -34 -11 -54 -25 -21 -14 -41 -23 -46 -20 -4 2 -18
-3 -31 -13 -17 -13 -32 -16 -49 -11 -19 5 -21 7 -6 8 19 1 19 1 1 15 -16 12
-21 11 -38 -5 -17 -15 -18 -21 -7 -34 10 -12 10 -15 -4 -15 -9 0 -16 -4 -16
-10 0 -5 -11 -10 -25 -10 -24 0 -65 -27 -65 -42 0 -15 42 -8 68 10 30 21 120
52 151 52 11 0 30 11 43 24 13 13 37 26 53 30 69 15 147 50 213 97 20 14 23
24 20 69 -3 47 -5 51 -17 37z"/>
<path d="M1900 2075 c0 -18 16 -42 50 -76 28 -27 50 -57 50 -65 0 -16 68 -84
85 -84 18 -1 55 -38 55 -55 0 -22 88 -105 111 -105 12 0 27 -17 41 -47 25 -53
68 -82 151 -103 26 -7 50 -16 53 -21 3 -5 14 -9 24 -9 10 0 25 -6 32 -13 15
-15 121 -67 137 -67 6 0 11 -4 11 -8 0 -4 28 -14 63 -21 34 -8 68 -18 75 -24
7 -5 15 -7 18 -4 8 8 -51 37 -81 39 -14 1 -25 6 -25 10 0 4 -6 8 -14 8 -7 0
-19 6 -25 14 -6 7 -25 16 -42 20 -19 4 -33 13 -36 26 -3 11 -8 20 -12 20 -3 0
-31 23 -61 50 -30 28 -60 50 -67 50 -6 0 -18 9 -26 21 -22 30 -88 76 -122 85
-39 9 -81 32 -132 71 -23 18 -47 33 -55 33 -7 1 -31 25 -53 56 -22 30 -56 72
-75 93 -19 21 -53 59 -75 85 -22 25 -43 46 -47 46 -5 0 -8 -11 -8 -25z"/>
<path d="M1257 2014 c-4 -4 -7 -27 -7 -50 0 -23 -5 -55 -11 -71 -6 -15 -12
-45 -14 -65 -3 -21 -11 -50 -18 -65 -8 -16 -18 -57 -21 -93 -7 -59 -13 -94
-45 -245 -11 -50 -16 -101 -26 -274 -3 -52 -9 -100 -14 -105 -14 -19 -32 -80
-42 -141 -5 -33 -14 -82 -19 -110 -6 -27 -15 -86 -20 -130 -22 -199 -46 -363
-59 -405 -6 -19 -11 -46 -11 -60 0 -14 -7 -38 -15 -54 -8 -15 -15 -46 -15 -68
0 -22 -5 -48 -10 -59 -10 -18 -7 -19 49 -19 33 0 62 4 66 9 3 5 12 62 20 125
9 63 22 134 30 157 8 23 15 52 15 64 0 12 7 39 15 58 8 20 15 62 15 94 0 32 7
91 15 133 32 168 37 200 45 310 10 124 20 189 49 315 11 44 24 125 31 180 23
195 32 260 40 290 5 17 11 73 15 125 6 93 5 96 -22 128 -15 19 -31 30 -36 26z"/>
<path d="M1600 1612 c-42 -15 -43 -76 0 -65 23 6 39 -22 22 -39 -8 -8 -16 -7
-27 2 -14 12 -18 11 -25 -1 -6 -8 -5 -18 0 -23 6 -6 10 -18 10 -27 0 -10 10
-19 23 -22 21 -4 21 -4 1 -6 -26 -1 -40 -54 -25 -92 8 -20 10 -17 10 24 1 40
4 47 21 47 23 0 25 -12 8 -40 -10 -15 -10 -22 0 -32 9 -9 16 -7 32 7 11 10 23
15 26 12 4 -4 -10 -21 -30 -39 -20 -17 -36 -38 -36 -45 0 -7 -4 -13 -10 -13
-5 0 -10 9 -10 20 0 11 -7 20 -15 20 -8 0 -15 -5 -15 -12 0 -6 -7 -19 -16 -29
-19 -21 -11 -39 17 -39 10 0 19 -5 19 -11 0 -8 5 -8 15 1 18 15 45 6 45 -15 0
-10 -10 -15 -30 -15 -20 0 -30 -5 -30 -15 0 -26 58 -18 85 11 l25 27 2 -47 c0
-25 1 -50 2 -56 1 -5 -3 -10 -9 -9 -5 0 -9 10 -7 21 4 31 -18 39 -46 17 -14
-10 -31 -19 -38 -19 -8 0 -14 -5 -14 -10 0 -7 6 -7 19 0 25 13 51 13 51 0 0
-5 -6 -10 -14 -10 -13 0 -30 -39 -21 -49 3 -2 23 -4 46 -3 44 2 52 -20 10 -26
-32 -5 -20 -26 17 -30 32 -3 46 -22 17 -22 -9 0 -15 -9 -15 -25 0 -14 -7 -28
-15 -31 -25 -10 -17 -24 15 -24 23 0 30 -4 30 -20 0 -16 -7 -20 -30 -20 -19 0
-30 -5 -30 -14 0 -17 61 -19 104 -3 28 10 28 11 6 19 l-22 8 23 25 c23 24 49
33 49 17 0 -4 -5 -13 -12 -20 -16 -16 -2 -28 16 -13 8 7 21 9 27 5 9 -5 5 -10
-10 -16 -12 -4 -19 -12 -16 -18 4 -6 10 -8 15 -5 5 3 28 0 50 -6 30 -9 49 -9
76 -1 30 9 33 8 23 -4 -6 -8 -29 -14 -53 -14 -23 0 -51 -7 -62 -15 -27 -21
-42 -18 -47 8 -3 13 -5 8 -6 -15 -1 -40 13 -49 38 -25 11 10 13 8 7 -13 -3
-14 -6 -29 -6 -35 0 -5 -5 -3 -10 5 -7 11 -12 12 -21 3 -20 -20 21 -30 121
-28 52 1 106 -1 118 -4 l24 -6 -22 -20 c-16 -14 -23 -16 -29 -7 -7 11 -41 7
-41 -5 0 -9 45 -42 58 -43 8 0 12 -10 10 -27 -3 -27 -2 -28 50 -27 85 2 62
-21 -28 -28 -30 -3 -35 -7 -38 -32 -2 -16 2 -39 9 -52 6 -12 9 -30 6 -38 -4
-9 -4 -30 0 -46 4 -24 11 -30 32 -30 20 0 29 7 37 28 5 15 8 35 6 44 -3 16 -5
16 -19 3 -8 -9 -20 -14 -27 -12 -18 6 -19 36 -2 53 9 8 16 11 16 5 0 -6 9 -11
20 -11 11 0 19 3 19 8 -3 18 2 32 11 32 6 0 10 -9 10 -19 0 -15 9 -20 40 -23
22 -2 47 0 56 5 10 6 20 5 26 -1 6 -6 17 -8 24 -5 8 3 14 0 14 -6 0 -6 -9 -11
-20 -11 -11 0 -20 -7 -20 -15 0 -8 -9 -15 -20 -15 -15 0 -20 -7 -20 -29 0 -37
22 -57 39 -37 7 8 10 24 6 35 -3 10 -1 22 5 26 5 3 10 -1 10 -9 0 -9 7 -16 15
-16 9 0 15 -10 16 -22 0 -13 3 -17 6 -10 5 14 40 16 45 3 5 -14 43 -18 41 -4
-2 6 4 28 12 48 14 32 14 36 0 41 -17 7 -21 34 -5 34 6 0 10 -6 10 -14 0 -7 7
-19 15 -26 8 -7 15 -22 16 -34 0 -15 2 -16 6 -6 6 16 23 30 36 30 4 0 7 -12 7
-26 0 -32 29 -57 47 -42 9 7 13 7 13 -1 0 -6 7 -11 15 -11 8 0 15 -7 15 -15 0
-8 7 -15 15 -15 10 0 15 7 13 18 -2 11 3 17 17 17 12 0 21 -8 23 -20 6 -31 39
-57 69 -53 26 3 26 4 9 21 -10 9 -16 17 -14 18 2 0 20 1 40 2 32 2 37 -1 32
-16 -8 -25 24 -47 59 -40 23 5 27 2 27 -16 0 -19 -4 -21 -22 -16 -37 12 -43
11 -43 -5 0 -11 14 -16 58 -17 51 -2 57 0 57 17 0 11 7 20 15 20 8 0 15 7 15
16 0 9 5 14 12 12 18 -6 22 -28 4 -28 -9 0 -16 -11 -18 -27 -3 -26 -8 -29 -60
-37 -39 -5 -58 -13 -58 -22 0 -16 16 -19 25 -4 4 7 13 6 26 -1 15 -7 29 -7 51
0 44 16 49 14 42 -13 -4 -17 2 -31 26 -55 33 -33 46 -37 70 -21 13 8 12 10 -2
10 -10 0 -18 5 -18 11 0 6 8 9 18 7 9 -2 22 3 29 11 9 13 14 10 33 -22 23 -39
49 -47 71 -21 12 14 14 14 25 -1 17 -22 84 -10 91 16 6 23 33 26 33 4 0 -17
26 -20 35 -4 5 7 14 5 29 -4 16 -11 34 -13 64 -7 42 7 59 0 47 -20 -4 -7 718
-10 2160 -10 l2166 0 -3 92 -3 91 -52 15 c-80 22 -66 52 15 33 l42 -9 0 85 0
85 -29 -7 c-22 -5 -30 -2 -35 12 -3 10 -9 25 -13 33 -5 11 -1 11 20 -3 58 -38
57 -40 57 234 l0 251 -47 -7 c-27 -4 -55 -11 -64 -16 -9 -5 -43 -12 -75 -15
-33 -4 -64 -11 -70 -16 -7 -5 -36 -11 -65 -14 -58 -5 -174 -26 -279 -51 -87
-20 -225 -42 -333 -53 -48 -5 -104 -14 -125 -19 -41 -11 -258 -26 -597 -42
-238 -11 -910 -9 -1120 3 -384 22 -505 31 -555 42 -30 7 -95 14 -145 15 -49 1
-108 6 -130 11 -22 4 -69 11 -105 15 -36 4 -90 13 -120 20 -90 23 -209 46
-305 60 -49 8 -119 20 -155 29 -36 8 -92 20 -125 27 -33 6 -80 19 -105 29 -25
9 -81 25 -125 35 -44 9 -98 23 -120 31 -22 7 -58 16 -80 20 -22 4 -44 10 -50
14 -5 5 -28 11 -50 15 -22 4 -73 23 -113 41 -40 19 -80 34 -90 34 -9 0 -30 7
-46 15 -15 8 -38 15 -50 15 -12 0 -30 6 -41 14 -11 8 -40 20 -65 27 -25 7 -65
26 -89 41 -25 15 -53 28 -63 28 -10 0 -42 12 -71 26 -28 14 -72 32 -96 41 -24
8 -55 25 -69 38 -14 13 -37 27 -51 30 -36 9 -109 43 -116 54 -3 5 -19 12 -36
16 -17 4 -42 20 -56 36 -15 16 -34 29 -43 29 -9 0 -26 9 -38 21 -12 11 -36 25
-53 31 -26 9 -35 7 -59 -11 -34 -25 -41 -26 -34 -6 4 9 0 15 -10 15 -9 0 -16
6 -16 14 0 16 -19 25 -40 18z"/>
<path d="M7845 1568 c-19 -11 -57 -21 -141 -37 -23 -4 -56 -20 -74 -34 -17
-15 -38 -27 -46 -27 -8 0 -22 -9 -31 -20 -10 -11 -23 -20 -31 -20 -7 0 -30 -9
-52 -20 -23 -12 -59 -20 -87 -20 -26 0 -79 -10 -118 -21 -115 -33 -242 -61
-355 -77 -77 -12 -189 -39 -204 -51 -20 -15 -129 -55 -170 -62 -23 -4 -72 -17
-111 -29 -38 -12 -88 -25 -110 -29 -22 -5 -67 -16 -100 -25 -32 -9 -78 -16
-100 -16 -23 0 -46 -5 -53 -12 -9 -9 -15 -9 -24 0 -7 7 -22 12 -35 12 -21 0
-111 -30 -143 -49 -9 -5 -36 -12 -60 -16 -25 -4 -50 -12 -57 -17 -14 -11 -197
-30 -217 -22 -8 3 -17 1 -20 -5 -8 -13 -330 -17 -417 -6 -19 3 -142 7 -274 10
-195 5 -236 4 -220 -6 16 -10 188 -31 325 -40 29 -1 115 -22 137 -32 16 -7 30
-7 49 2 38 17 54 0 34 -36 -15 -26 -18 -27 -100 -25 -47 1 -108 6 -136 11 -29
6 -66 6 -87 1 -21 -4 -46 -6 -57 -3 -11 3 -35 2 -55 -1 -32 -6 -34 -8 -22 -29
6 -12 13 -23 13 -25 1 -1 14 2 29 8 18 7 39 7 63 1 24 -7 58 -7 97 0 83 14
136 11 158 -9 11 -9 31 -15 47 -14 15 2 31 -1 34 -7 11 -18 375 1 387 20 4 7
13 7 27 -2 17 -10 23 -10 36 1 9 7 14 15 11 18 -5 6 42 32 57 32 6 0 7 -7 4
-15 -9 -25 21 -29 52 -6 25 17 31 18 43 6 13 -13 88 -18 239 -15 50 1 140 20
140 30 0 7 -14 11 -107 26 -21 4 -44 11 -52 17 -17 14 -178 20 -186 7 -8 -13
-91 -13 -116 1 -16 8 -29 7 -55 -6 -19 -9 -42 -14 -52 -11 -10 4 -98 7 -196 8
-97 1 -179 5 -182 10 -3 4 1 8 8 8 344 4 392 6 395 17 2 6 30 17 61 23 31 6
77 15 102 20 42 9 107 15 278 25 40 3 113 16 162 30 49 14 97 25 107 25 11 0
23 4 28 9 6 4 32 14 60 20 27 7 74 26 103 42 29 16 60 29 68 29 8 0 33 9 57
19 23 11 62 22 87 26 25 3 77 18 115 32 39 14 108 34 155 44 47 9 114 24 150
33 36 8 112 23 170 32 67 11 112 23 125 35 11 9 48 22 82 29 34 6 115 28 180
49 95 31 121 44 133 65 8 14 32 33 53 41 20 8 37 19 37 25 0 13 -20 12 -45 -2z"/>
<path d="M7810 1243 c-25 -8 -55 -23 -67 -33 -13 -10 -38 -21 -57 -24 -20 -4
-48 -13 -63 -21 -15 -8 -35 -15 -44 -15 -9 0 -22 -7 -29 -15 -7 -8 -18 -15
-24 -15 -6 0 -29 -5 -51 -11 -38 -11 -39 -12 -16 -20 19 -7 21 -12 12 -23 -9
-11 -30 -13 -82 -10 -56 4 -70 2 -75 -10 -3 -9 -14 -16 -23 -16 -14 0 -14 2
-1 10 10 7 -6 8 -50 4 -36 -4 -69 -10 -74 -15 -6 -5 -21 -9 -34 -9 -15 0 -21
-4 -16 -12 5 -8 -3 -9 -29 -5 -21 3 -37 2 -37 -2 0 -5 -12 -11 -27 -14 -16 -3
-37 -9 -48 -12 -16 -5 -17 -5 -5 4 26 18 2 24 -47 12 -49 -13 -89 -44 -78 -61
4 -6 17 -4 35 5 38 19 89 19 96 0 8 -19 35 -19 60 0 10 8 34 15 53 15 18 0 50
4 70 9 31 8 120 21 255 38 22 2 48 9 57 14 10 5 34 9 53 9 20 0 44 4 54 9 9 6
53 15 97 21 48 6 90 18 106 29 14 11 45 24 68 31 30 8 41 16 41 30 0 24 1 24
-85 1 -67 -19 -142 -35 -233 -51 -73 -12 -43 12 39 32 41 10 108 26 149 37 41
11 87 22 103 26 23 5 27 10 27 40 0 41 -10 43 -80 18z"/>
<path d="M2862 1168 c-29 -29 0 -44 101 -53 10 -1 22 -6 25 -11 4 -6 21 -19
37 -31 23 -16 35 -19 49 -11 13 7 22 5 37 -8 21 -19 26 -20 99 -30 24 -4 49
-12 55 -19 10 -13 94 -30 130 -26 12 1 41 -7 65 -18 25 -11 55 -21 66 -21 12
0 27 -6 33 -14 7 -8 35 -16 64 -19 59 -6 217 -39 232 -48 6 -4 35 -7 66 -7
104 -1 293 -24 317 -40 15 -10 38 -13 72 -10 38 4 50 2 50 -8 0 -19 18 -18 37
2 12 12 18 13 24 3 4 -7 28 -20 54 -30 41 -16 50 -16 80 -3 19 8 43 14 52 14
11 0 23 12 30 30 10 28 9 31 -12 36 -13 3 -29 3 -35 -1 -6 -4 -18 -1 -26 6 -8
7 -36 12 -62 12 -26 0 -53 4 -60 10 -7 6 -46 12 -85 14 -40 2 -85 8 -100 13
-16 5 -59 13 -95 16 -37 4 -72 11 -78 16 -6 4 -47 11 -90 13 -44 3 -100 10
-126 17 -35 8 -54 9 -71 1 -19 -9 -28 -8 -39 3 -8 8 -33 16 -57 18 -23 2 -48
9 -54 15 -14 14 -57 14 -57 -1 0 -6 -8 -4 -20 7 -11 10 -26 15 -35 11 -9 -3
-26 0 -38 6 -24 14 -32 16 -97 24 -25 3 -55 15 -67 27 -18 15 -25 17 -36 8
-11 -9 -17 -8 -27 4 -7 9 -21 13 -31 10 -11 -4 -19 -2 -19 3 0 18 -53 32 -120
32 -38 0 -72 5 -75 10 -3 6 -14 10 -25 10 -10 0 -20 7 -24 15 -8 21 -53 19
-65 -2 -9 -17 -11 -17 -23 0 -11 14 -16 15 -26 5z"/>
<path d="M6685 969 c-27 -5 -110 -15 -183 -22 -73 -6 -133 -16 -134 -22 0 -5
11 -17 26 -25 22 -13 28 -13 35 -1 6 10 22 12 57 7 69 -9 83 -9 132 -1 31 6
42 12 40 24 -2 11 7 17 32 21 53 8 100 0 100 -16 0 -12 4 -12 21 -4 l20 11
-22 20 c-23 20 -44 22 -124 8z"/>
</g>
</svg>
